<svg width="14" height="16" viewBox="0 0 14 16" fill="none" xmlns="http://www.w3.org/2000/svg">
<path d="M12.5358 1.46415C10.5849 -0.488051 7.40799 -0.488051 5.45918 1.46415L0.0538653 6.86898C0.0186583 6.90422 1.91462e-05 6.95188 1.91462e-05 7.00162C1.91462e-05 7.05136 0.0186583 7.09902 0.0538653 7.13425L0.818065 7.89897C0.852996 7.93377 0.900281 7.95331 0.949574 7.95331C0.998866 7.95331 1.04615 7.93377 1.08108 7.89897L6.4864 2.49414C7.1574 1.82268 8.05 1.45379 8.99852 1.45379C9.94704 1.45379 10.8396 1.82268 11.5086 2.49414C12.1796 3.1656 12.5482 4.0588 12.5482 5.00589C12.5482 5.95505 12.1796 6.84619 11.5086 7.51765L5.99971 13.0282L5.10711 13.9214C4.2725 14.7566 2.91599 14.7566 2.08138 13.9214C1.67753 13.5173 1.45593 12.9805 1.45593 12.4085C1.45593 11.8365 1.67753 11.2998 2.08138 10.8957L7.54675 5.42866C7.68551 5.29189 7.86776 5.21521 8.06243 5.21521H8.0645C8.25918 5.21521 8.43935 5.29189 8.57604 5.42866C8.7148 5.56751 8.78935 5.74989 8.78935 5.94469C8.78935 6.13743 8.71272 6.3198 8.57604 6.45658L4.10889 10.9226C4.07368 10.9578 4.05504 11.0055 4.05504 11.0552C4.05504 11.105 4.07368 11.1526 4.10889 11.1879L4.87309 11.9526C4.90802 11.9874 4.9553 12.0069 5.0046 12.0069C5.05389 12.0069 5.10117 11.9874 5.1361 11.9526L9.60118 7.48449C10.0133 7.07208 10.2391 6.52497 10.2391 5.94262C10.2391 5.36027 10.0112 4.81109 9.60118 4.40075C8.75 3.54899 7.36657 3.55106 6.51539 4.40075L5.98522 4.93336L1.05209 9.86775C0.717271 10.2008 0.451867 10.5971 0.271269 11.0336C0.0906712 11.4701 -0.00152772 11.9382 1.91462e-05 12.4106C1.91462e-05 13.3701 0.374871 14.2716 1.05209 14.9493C1.75416 15.6498 2.67368 16 3.59321 16C4.51273 16 5.43226 15.6498 6.13226 14.9493L12.5358 8.54556C13.4781 7.60054 14 6.34259 14 5.00589C14.0021 3.66712 13.4802 2.40917 12.5358 1.46415Z" fill="#D9D9D9"/>
</svg>
