<svg width="10" height="14" viewBox="0 0 10 14" fill="none" xmlns="http://www.w3.org/2000/svg">
<path d="M8.31786 6.45598C8.91786 5.79022 9.28571 4.89049 9.28571 3.90136V3.70734C9.28571 1.6606 7.7125 0 5.77321 0H0.489286C0.219643 0 0 0.233967 0 0.521196V13.4389C0 13.7489 0.235714 14 0.526786 14H6.21786C8.30714 14 10 12.2082 10 9.99592V9.78668C10 8.3981 9.33214 7.175 8.31786 6.45598ZM1.71429 1.82609H5.72679C6.74643 1.82609 7.57143 2.67065 7.57143 3.71495V3.89565C7.57143 4.93804 6.74464 5.78451 5.72679 5.78451H1.71429V1.82609ZM8.26071 9.99402C8.26071 11.1905 7.3375 12.1606 6.19821 12.1606H1.71429V7.62201H6.19821C7.3375 7.62201 8.26071 8.59212 8.26071 9.78859V9.99402Z" fill="#D9D9D9"/>
</svg>
