<svg width="11" height="14" viewBox="0 0 11 14" fill="none" xmlns="http://www.w3.org/2000/svg">
<path d="M10.8496 0H2.7265C2.64376 0 2.57607 0.0715909 2.57607 0.159091V1.43182C2.57607 1.51932 2.64376 1.59091 2.7265 1.59091H6.13368L3.20034 12.4091H0.150427C0.0676923 12.4091 0 12.4807 0 12.5682V13.8409C0 13.9284 0.0676923 14 0.150427 14H8.2735C8.35624 14 8.42393 13.9284 8.42393 13.8409V12.5682C8.42393 12.4807 8.35624 12.4091 8.2735 12.4091H4.76479L7.69812 1.59091H10.8496C10.9323 1.59091 11 1.51932 11 1.43182V0.159091C11 0.0715909 10.9323 0 10.8496 0Z" fill="#D9D9D9"/>
</svg>
