<svg width="13" height="14" viewBox="0 0 13 14" fill="none" xmlns="http://www.w3.org/2000/svg">
<path fill-rule="evenodd" clip-rule="evenodd" d="M10.2315 5.6046H2.76851V10.5498C2.76851 11.5026 3.60383 12.2749 4.63425 12.2749H8.36573C9.39615 12.2749 10.2315 11.5026 10.2315 10.5498V5.6046ZM0.902771 3.87952V10.5498C0.902771 12.4553 2.57341 14 4.63425 14H8.36573C10.4266 14 12.0972 12.4553 12.0972 10.5498V3.87952H0.902771Z" fill="#404040"/>
<path fill-rule="evenodd" clip-rule="evenodd" d="M4.60412 3.82679L8.39579 3.82679L8.39579 3.4789C8.39579 2.51823 7.547 1.73944 6.49996 1.73944C5.45292 1.73944 4.60412 2.51823 4.60412 3.4789L4.60412 3.82679ZM10.2916 5.56625L10.2916 3.4789C10.2916 1.55755 8.59404 -1.34901e-05 6.49996 -1.36611e-05C4.40588 -1.38321e-05 2.70829 1.55755 2.70829 3.4789L2.70829 5.56625L10.2916 5.56625Z" fill="#404040"/>
<path d="M0 3.87952H13V5.56626H0V3.87952Z" fill="#404040"/>
</svg>
