<svg width="12" height="12" viewBox="0 0 12 12" fill="none" xmlns="http://www.w3.org/2000/svg">
<path d="M11.7195 2.7195L9.2805 0.2805C9.168 0.168 9.03 0.0855 8.88 0.0405V0H0.48C0.2145 0 0 0.2145 0 0.48V11.52C0 11.7855 0.2145 12 0.48 12H11.52C11.7855 12 12 11.7855 12 11.52V3.3975C12 3.1425 11.8995 2.8995 11.7195 2.7195ZM4.08 1.08H7.92V2.64H4.08V1.08ZM10.92 10.92H1.08V1.08H3.12V3.12C3.12 3.3855 3.3345 3.6 3.6 3.6H8.4C8.6655 3.6 8.88 3.3855 8.88 3.12V1.407L10.92 3.447V10.92ZM6 4.95C4.8075 4.95 3.84 5.9175 3.84 7.11C3.84 8.3025 4.8075 9.27 6 9.27C7.1925 9.27 8.16 8.3025 8.16 7.11C8.16 5.9175 7.1925 4.95 6 4.95ZM6 8.31C5.337 8.31 4.8 7.773 4.8 7.11C4.8 6.447 5.337 5.91 6 5.91C6.663 5.91 7.2 6.447 7.2 7.11C7.2 7.773 6.663 8.31 6 8.31Z" fill="white"/>
</svg>
