<svg width="16" height="16" viewBox="0 0 16 16" fill="none" xmlns="http://www.w3.org/2000/svg">
<mask id="path-1-outside-1_11_64" maskUnits="userSpaceOnUse" x="0" y="0" width="16" height="16" fill="black">
<rect fill="white" width="16" height="16"/>
<path d="M14.8151 9.77952L13.734 8.90445C13.7852 8.60756 13.8116 8.30441 13.8116 8.00127C13.8116 7.69812 13.7852 7.39497 13.734 7.09808L14.8151 6.22302C14.8967 6.15693 14.955 6.06891 14.9825 5.97065C15.0099 5.8724 15.0051 5.76858 14.9686 5.67298L14.9538 5.63235C14.6562 4.84484 14.2105 4.1148 13.6383 3.47752L13.6086 3.4447C13.5392 3.36743 13.4467 3.31189 13.3432 3.28539C13.2398 3.25889 13.1303 3.26268 13.0292 3.29625L11.6873 3.74785C11.1922 3.36345 10.6392 3.0603 10.0417 2.84778L9.7826 1.51957C9.76305 1.41963 9.71184 1.32768 9.63577 1.25595C9.55971 1.18422 9.4624 1.1361 9.35675 1.11798L9.31219 1.11016C8.45225 0.963279 7.54775 0.963279 6.68781 1.11016L6.64325 1.11798C6.5376 1.1361 6.44029 1.18422 6.36422 1.25595C6.28816 1.32768 6.23695 1.41963 6.2174 1.51957L5.95661 2.85403C5.36388 3.06659 4.8119 3.36958 4.32257 3.75097L2.97076 3.29625C2.86969 3.26241 2.76014 3.25849 2.65666 3.285C2.55317 3.31152 2.46066 3.36722 2.39142 3.4447L2.36171 3.47752C1.7902 4.11525 1.3446 4.84517 1.04622 5.63235L1.03136 5.67298C0.957089 5.86831 1.01816 6.08707 1.18487 6.22302L2.27918 7.10746C2.22802 7.40123 2.20326 7.70125 2.20326 7.9997C2.20326 8.29973 2.22802 8.59975 2.27918 8.89195L1.18487 9.77639C1.10332 9.84248 1.04496 9.9305 1.01754 10.0288C0.990119 10.127 0.994941 10.2308 1.03136 10.3264L1.04622 10.3671C1.34497 11.1546 1.78732 11.8812 2.36171 12.5219L2.39142 12.5547C2.46083 12.632 2.55335 12.6875 2.65677 12.714C2.76019 12.7405 2.86966 12.7367 2.97076 12.7032L4.32257 12.2484C4.81443 12.6313 5.36407 12.9344 5.95661 13.1454L6.2174 14.4798C6.23695 14.5798 6.28816 14.6717 6.36422 14.7435C6.44029 14.8152 6.5376 14.8633 6.64325 14.8814L6.68781 14.8892C7.55565 15.0369 8.44435 15.0369 9.31219 14.8892L9.35675 14.8814C9.4624 14.8633 9.55971 14.8152 9.63577 14.7435C9.71184 14.6717 9.76305 14.5798 9.7826 14.4798L10.0417 13.1516C10.639 12.9397 11.195 12.6355 11.6873 12.2516L13.0292 12.7032C13.1303 12.737 13.2399 12.7409 13.3433 12.7144C13.4468 12.6879 13.5393 12.6322 13.6086 12.5547L13.6383 12.5219C14.2127 11.8797 14.655 11.1546 14.9538 10.3671L14.9686 10.3264C15.0429 10.1342 14.9818 9.91546 14.8151 9.77952ZM12.5621 7.28247C12.6034 7.51842 12.6249 7.76063 12.6249 8.00283C12.6249 8.24503 12.6034 8.48724 12.5621 8.72319L12.4532 9.3498L13.6862 10.3483C13.4992 10.756 13.2633 11.1419 12.983 11.4984L11.4513 10.9843L10.933 11.3874C10.5386 11.6937 10.0995 11.9344 9.62414 12.1031L8.99528 12.3266L8.69983 13.8423C8.23367 13.8923 7.76303 13.8923 7.29686 13.8423L7.00142 12.3234L6.37751 12.0969C5.9071 11.9281 5.4697 11.6875 5.07852 11.3828L4.56025 10.978L3.01863 11.4968C2.73804 11.139 2.50366 10.753 2.31549 10.3467L3.56166 9.33886L3.45438 8.71382C3.41476 8.48099 3.39331 8.24035 3.39331 8.00283C3.39331 7.76375 3.41311 7.52467 3.45438 7.29184L3.56166 6.6668L2.31549 5.65892C2.50201 5.25108 2.73804 4.86667 3.01863 4.50884L4.56025 5.02762L5.07852 4.62291C5.4697 4.3182 5.9071 4.07756 6.37751 3.9088L7.00307 3.68534L7.29851 2.16649C7.76232 2.11648 8.23603 2.11648 8.70149 2.16649L8.99693 3.68222L9.6258 3.90567C10.0995 4.07443 10.5402 4.31507 10.9347 4.62135L11.453 5.0245L12.9847 4.5104C13.2653 4.86824 13.4996 5.2542 13.6878 5.66048L12.4548 6.65899L12.5621 7.28247ZM8.00165 5.09638C6.39731 5.09638 5.09668 6.32771 5.09668 7.84657C5.09668 9.36542 6.39731 10.5968 8.00165 10.5968C9.60599 10.5968 10.9066 9.36542 10.9066 7.84657C10.9066 6.32771 9.60599 5.09638 8.00165 5.09638ZM9.30889 9.08416C9.13743 9.24694 8.93367 9.37603 8.70932 9.46399C8.48498 9.55195 8.24447 9.59705 8.00165 9.59669C7.50814 9.59669 7.04433 9.41387 6.69441 9.08416C6.52246 8.92183 6.38611 8.72893 6.2932 8.51654C6.20029 8.30414 6.15265 8.07645 6.15303 7.84657C6.15303 7.37935 6.34615 6.94026 6.69441 6.60898C7.04433 6.27771 7.50814 6.09645 8.00165 6.09645C8.49517 6.09645 8.95897 6.27771 9.30889 6.60898C9.48084 6.7713 9.61719 6.96421 9.7101 7.1766C9.80301 7.38899 9.85065 7.61668 9.85027 7.84657C9.85027 8.31379 9.65716 8.75288 9.30889 9.08416Z"/>
</mask>
<path d="M14.8151 9.77952L13.734 8.90445C13.7852 8.60756 13.8116 8.30441 13.8116 8.00127C13.8116 7.69812 13.7852 7.39497 13.734 7.09808L14.8151 6.22302C14.8967 6.15693 14.955 6.06891 14.9825 5.97065C15.0099 5.8724 15.0051 5.76858 14.9686 5.67298L14.9538 5.63235C14.6562 4.84484 14.2105 4.1148 13.6383 3.47752L13.6086 3.4447C13.5392 3.36743 13.4467 3.31189 13.3432 3.28539C13.2398 3.25889 13.1303 3.26268 13.0292 3.29625L11.6873 3.74785C11.1922 3.36345 10.6392 3.0603 10.0417 2.84778L9.7826 1.51957C9.76305 1.41963 9.71184 1.32768 9.63577 1.25595C9.55971 1.18422 9.4624 1.1361 9.35675 1.11798L9.31219 1.11016C8.45225 0.963279 7.54775 0.963279 6.68781 1.11016L6.64325 1.11798C6.5376 1.1361 6.44029 1.18422 6.36422 1.25595C6.28816 1.32768 6.23695 1.41963 6.2174 1.51957L5.95661 2.85403C5.36388 3.06659 4.8119 3.36958 4.32257 3.75097L2.97076 3.29625C2.86969 3.26241 2.76014 3.25849 2.65666 3.285C2.55317 3.31152 2.46066 3.36722 2.39142 3.4447L2.36171 3.47752C1.7902 4.11525 1.3446 4.84517 1.04622 5.63235L1.03136 5.67298C0.957089 5.86831 1.01816 6.08707 1.18487 6.22302L2.27918 7.10746C2.22802 7.40123 2.20326 7.70125 2.20326 7.9997C2.20326 8.29973 2.22802 8.59975 2.27918 8.89195L1.18487 9.77639C1.10332 9.84248 1.04496 9.9305 1.01754 10.0288C0.990119 10.127 0.994941 10.2308 1.03136 10.3264L1.04622 10.3671C1.34497 11.1546 1.78732 11.8812 2.36171 12.5219L2.39142 12.5547C2.46083 12.632 2.55335 12.6875 2.65677 12.714C2.76019 12.7405 2.86966 12.7367 2.97076 12.7032L4.32257 12.2484C4.81443 12.6313 5.36407 12.9344 5.95661 13.1454L6.2174 14.4798C6.23695 14.5798 6.28816 14.6717 6.36422 14.7435C6.44029 14.8152 6.5376 14.8633 6.64325 14.8814L6.68781 14.8892C7.55565 15.0369 8.44435 15.0369 9.31219 14.8892L9.35675 14.8814C9.4624 14.8633 9.55971 14.8152 9.63577 14.7435C9.71184 14.6717 9.76305 14.5798 9.7826 14.4798L10.0417 13.1516C10.639 12.9397 11.195 12.6355 11.6873 12.2516L13.0292 12.7032C13.1303 12.737 13.2399 12.7409 13.3433 12.7144C13.4468 12.6879 13.5393 12.6322 13.6086 12.5547L13.6383 12.5219C14.2127 11.8797 14.655 11.1546 14.9538 10.3671L14.9686 10.3264C15.0429 10.1342 14.9818 9.91546 14.8151 9.77952ZM12.5621 7.28247C12.6034 7.51842 12.6249 7.76063 12.6249 8.00283C12.6249 8.24503 12.6034 8.48724 12.5621 8.72319L12.4532 9.3498L13.6862 10.3483C13.4992 10.756 13.2633 11.1419 12.983 11.4984L11.4513 10.9843L10.933 11.3874C10.5386 11.6937 10.0995 11.9344 9.62414 12.1031L8.99528 12.3266L8.69983 13.8423C8.23367 13.8923 7.76303 13.8923 7.29686 13.8423L7.00142 12.3234L6.37751 12.0969C5.9071 11.9281 5.4697 11.6875 5.07852 11.3828L4.56025 10.978L3.01863 11.4968C2.73804 11.139 2.50366 10.753 2.31549 10.3467L3.56166 9.33886L3.45438 8.71382C3.41476 8.48099 3.39331 8.24035 3.39331 8.00283C3.39331 7.76375 3.41311 7.52467 3.45438 7.29184L3.56166 6.6668L2.31549 5.65892C2.50201 5.25108 2.73804 4.86667 3.01863 4.50884L4.56025 5.02762L5.07852 4.62291C5.4697 4.3182 5.9071 4.07756 6.37751 3.9088L7.00307 3.68534L7.29851 2.16649C7.76232 2.11648 8.23603 2.11648 8.70149 2.16649L8.99693 3.68222L9.6258 3.90567C10.0995 4.07443 10.5402 4.31507 10.9347 4.62135L11.453 5.0245L12.9847 4.5104C13.2653 4.86824 13.4996 5.2542 13.6878 5.66048L12.4548 6.65899L12.5621 7.28247ZM8.00165 5.09638C6.39731 5.09638 5.09668 6.32771 5.09668 7.84657C5.09668 9.36542 6.39731 10.5968 8.00165 10.5968C9.60599 10.5968 10.9066 9.36542 10.9066 7.84657C10.9066 6.32771 9.60599 5.09638 8.00165 5.09638ZM9.30889 9.08416C9.13743 9.24694 8.93367 9.37603 8.70932 9.46399C8.48498 9.55195 8.24447 9.59705 8.00165 9.59669C7.50814 9.59669 7.04433 9.41387 6.69441 9.08416C6.52246 8.92183 6.38611 8.72893 6.2932 8.51654C6.20029 8.30414 6.15265 8.07645 6.15303 7.84657C6.15303 7.37935 6.34615 6.94026 6.69441 6.60898C7.04433 6.27771 7.50814 6.09645 8.00165 6.09645C8.49517 6.09645 8.95897 6.27771 9.30889 6.60898C9.48084 6.7713 9.61719 6.96421 9.7101 7.1766C9.80301 7.38899 9.85065 7.61668 9.85027 7.84657C9.85027 8.31379 9.65716 8.75288 9.30889 9.08416Z" fill="#404040"/>
<path d="M14.8151 9.77952L13.734 8.90445C13.7852 8.60756 13.8116 8.30441 13.8116 8.00127C13.8116 7.69812 13.7852 7.39497 13.734 7.09808L14.8151 6.22302C14.8967 6.15693 14.955 6.06891 14.9825 5.97065C15.0099 5.8724 15.0051 5.76858 14.9686 5.67298L14.9538 5.63235C14.6562 4.84484 14.2105 4.1148 13.6383 3.47752L13.6086 3.4447C13.5392 3.36743 13.4467 3.31189 13.3432 3.28539C13.2398 3.25889 13.1303 3.26268 13.0292 3.29625L11.6873 3.74785C11.1922 3.36345 10.6392 3.0603 10.0417 2.84778L9.7826 1.51957C9.76305 1.41963 9.71184 1.32768 9.63577 1.25595C9.55971 1.18422 9.4624 1.1361 9.35675 1.11798L9.31219 1.11016C8.45225 0.963279 7.54775 0.963279 6.68781 1.11016L6.64325 1.11798C6.5376 1.1361 6.44029 1.18422 6.36422 1.25595C6.28816 1.32768 6.23695 1.41963 6.2174 1.51957L5.95661 2.85403C5.36388 3.06659 4.8119 3.36958 4.32257 3.75097L2.97076 3.29625C2.86969 3.26241 2.76014 3.25849 2.65666 3.285C2.55317 3.31152 2.46066 3.36722 2.39142 3.4447L2.36171 3.47752C1.7902 4.11525 1.3446 4.84517 1.04622 5.63235L1.03136 5.67298C0.957089 5.86831 1.01816 6.08707 1.18487 6.22302L2.27918 7.10746C2.22802 7.40123 2.20326 7.70125 2.20326 7.9997C2.20326 8.29973 2.22802 8.59975 2.27918 8.89195L1.18487 9.77639C1.10332 9.84248 1.04496 9.9305 1.01754 10.0288C0.990119 10.127 0.994941 10.2308 1.03136 10.3264L1.04622 10.3671C1.34497 11.1546 1.78732 11.8812 2.36171 12.5219L2.39142 12.5547C2.46083 12.632 2.55335 12.6875 2.65677 12.714C2.76019 12.7405 2.86966 12.7367 2.97076 12.7032L4.32257 12.2484C4.81443 12.6313 5.36407 12.9344 5.95661 13.1454L6.2174 14.4798C6.23695 14.5798 6.28816 14.6717 6.36422 14.7435C6.44029 14.8152 6.5376 14.8633 6.64325 14.8814L6.68781 14.8892C7.55565 15.0369 8.44435 15.0369 9.31219 14.8892L9.35675 14.8814C9.4624 14.8633 9.55971 14.8152 9.63577 14.7435C9.71184 14.6717 9.76305 14.5798 9.7826 14.4798L10.0417 13.1516C10.639 12.9397 11.195 12.6355 11.6873 12.2516L13.0292 12.7032C13.1303 12.737 13.2399 12.7409 13.3433 12.7144C13.4468 12.6879 13.5393 12.6322 13.6086 12.5547L13.6383 12.5219C14.2127 11.8797 14.655 11.1546 14.9538 10.3671L14.9686 10.3264C15.0429 10.1342 14.9818 9.91546 14.8151 9.77952ZM12.5621 7.28247C12.6034 7.51842 12.6249 7.76063 12.6249 8.00283C12.6249 8.24503 12.6034 8.48724 12.5621 8.72319L12.4532 9.3498L13.6862 10.3483C13.4992 10.756 13.2633 11.1419 12.983 11.4984L11.4513 10.9843L10.933 11.3874C10.5386 11.6937 10.0995 11.9344 9.62414 12.1031L8.99528 12.3266L8.69983 13.8423C8.23367 13.8923 7.76303 13.8923 7.29686 13.8423L7.00142 12.3234L6.37751 12.0969C5.9071 11.9281 5.4697 11.6875 5.07852 11.3828L4.56025 10.978L3.01863 11.4968C2.73804 11.139 2.50366 10.753 2.31549 10.3467L3.56166 9.33886L3.45438 8.71382C3.41476 8.48099 3.39331 8.24035 3.39331 8.00283C3.39331 7.76375 3.41311 7.52467 3.45438 7.29184L3.56166 6.6668L2.31549 5.65892C2.50201 5.25108 2.73804 4.86667 3.01863 4.50884L4.56025 5.02762L5.07852 4.62291C5.4697 4.3182 5.9071 4.07756 6.37751 3.9088L7.00307 3.68534L7.29851 2.16649C7.76232 2.11648 8.23603 2.11648 8.70149 2.16649L8.99693 3.68222L9.6258 3.90567C10.0995 4.07443 10.5402 4.31507 10.9347 4.62135L11.453 5.0245L12.9847 4.5104C13.2653 4.86824 13.4996 5.2542 13.6878 5.66048L12.4548 6.65899L12.5621 7.28247ZM8.00165 5.09638C6.39731 5.09638 5.09668 6.32771 5.09668 7.84657C5.09668 9.36542 6.39731 10.5968 8.00165 10.5968C9.60599 10.5968 10.9066 9.36542 10.9066 7.84657C10.9066 6.32771 9.60599 5.09638 8.00165 5.09638ZM9.30889 9.08416C9.13743 9.24694 8.93367 9.37603 8.70932 9.46399C8.48498 9.55195 8.24447 9.59705 8.00165 9.59669C7.50814 9.59669 7.04433 9.41387 6.69441 9.08416C6.52246 8.92183 6.38611 8.72893 6.2932 8.51654C6.20029 8.30414 6.15265 8.07645 6.15303 7.84657C6.15303 7.37935 6.34615 6.94026 6.69441 6.60898C7.04433 6.27771 7.50814 6.09645 8.00165 6.09645C8.49517 6.09645 8.95897 6.27771 9.30889 6.60898C9.48084 6.7713 9.61719 6.96421 9.7101 7.1766C9.80301 7.38899 9.85065 7.61668 9.85027 7.84657C9.85027 8.31379 9.65716 8.75288 9.30889 9.08416Z" stroke="#404040" stroke-width="0.4" mask="url(#path-1-outside-1_11_64)"/>
</svg>
