<svg width="17" height="14" viewBox="0 0 17 14" fill="none" xmlns="http://www.w3.org/2000/svg">
<path d="M16.8482 6.27803H9.59855C9.40882 6.23998 9.2096 6.20193 8.999 6.16388C8.69732 6.10871 8.57779 6.08588 8.41462 6.05354C7.44129 5.8633 6.85502 5.67305 6.38828 5.40291C5.72232 5.01291 5.39788 4.48403 5.39788 3.78394C5.39788 3.08004 5.68627 2.49599 6.2327 2.09077C6.77154 1.69126 7.53806 1.48009 8.44877 1.48009C9.4885 1.48009 10.2911 1.75404 10.8356 2.29433C11.1126 2.56828 11.3156 2.90501 11.439 3.29501C11.4636 3.37301 11.4921 3.48526 11.5205 3.63365C11.5376 3.72496 11.6192 3.78965 11.7084 3.78965H13.0896C13.1959 3.78965 13.2813 3.70213 13.2813 3.5975V3.57848C13.268 3.44911 13.2566 3.34828 13.2433 3.27409C13.1048 2.44653 12.7121 1.7198 12.1106 1.1757C11.2682 0.405218 10.0292 0 8.53036 0C7.15859 0 5.92344 0.34434 5.05257 0.968338C4.56685 1.31839 4.19118 1.75214 3.94074 2.25628C3.6846 2.77184 3.55558 3.36731 3.55558 4.02364C3.55558 4.58486 3.66373 5.06047 3.88382 5.47901C4.04129 5.77769 4.25569 6.04022 4.5308 6.27803H0.151786C0.0683036 6.27803 0 6.34651 0 6.43022V7.57168C0 7.65539 0.0683036 7.72388 0.151786 7.72388H8.37098C8.41083 7.73149 8.44498 7.7391 8.48292 7.7467C9.0692 7.86466 9.4221 7.94456 9.74654 8.03587C10.1829 8.15953 10.5169 8.2889 10.7939 8.4449C11.4731 8.82919 11.8051 9.38089 11.8051 10.1381C11.8051 10.8096 11.511 11.4089 10.9779 11.8274C10.3992 12.2821 9.54353 12.5199 8.5019 12.5199C7.67277 12.5199 6.97076 12.3582 6.41105 12.0443C5.85893 11.7342 5.47946 11.2871 5.27835 10.7221C5.26317 10.6803 5.24609 10.6232 5.22712 10.5509C5.20435 10.4672 5.12656 10.4082 5.04308 10.4082H3.53092C3.42467 10.4082 3.33929 10.4957 3.33929 10.6004V10.6194C3.34308 10.6631 3.34688 10.6993 3.35067 10.7278C3.474 11.6562 3.92556 12.4172 4.69208 12.9879C5.58571 13.65 6.84364 14 8.33114 14C9.92868 14 11.2682 13.6233 12.2055 12.9099C12.6798 12.5503 13.0441 12.1071 13.2888 11.5972C13.5355 11.0817 13.6626 10.4957 13.6626 9.8565C13.6626 9.25153 13.5526 8.74548 13.3249 8.30792C13.2148 8.09485 13.0763 7.8989 12.9113 7.72197H16.8482C16.9317 7.72197 17 7.65349 17 7.56978V6.42832C16.9995 6.38828 16.9833 6.35006 16.9549 6.32193C16.9265 6.2938 16.8881 6.27802 16.8482 6.27803V6.27803Z" fill="#D9D9D9"/>
</svg>
