<svg width="12" height="14" viewBox="0 0 12 14" fill="none" xmlns="http://www.w3.org/2000/svg">
<path d="M11.85 12.5543H0.15C0.0675 12.5543 0 12.619 0 12.6989V13.8554C0 13.9353 0.0675 14 0.15 14H11.85C11.9325 14 12 13.9353 12 13.8554V12.6989C12 12.619 11.9325 12.5543 11.85 12.5543ZM6 11.1087C7.30125 11.1087 8.52375 10.5932 9.44625 9.65924C10.3688 8.72527 10.875 7.48315 10.875 6.16304V0.228261C10.875 0.102717 10.7738 0 10.65 0H9.525C9.40125 0 9.3 0.102717 9.3 0.228261V6.16304C9.3 8.00815 7.81875 9.51087 6 9.51087C4.18125 9.51087 2.7 8.00815 2.7 6.16304V0.228261C2.7 0.102717 2.59875 0 2.475 0H1.35C1.22625 0 1.125 0.102717 1.125 0.228261V6.16304C1.125 7.48315 1.63313 8.72337 2.55375 9.65924C3.47438 10.5951 4.69875 11.1087 6 11.1087Z" fill="#D9D9D9"/>
</svg>
